<svg width="19" height="20" viewBox="0 0 19 20" fill="none" xmlns="http://www.w3.org/2000/svg">
<g id="Vector">
<path d="M17.1296 4.18429L15.1185 3.03231L10.527 0.403416L10.3842 0.321285C9.63145 -0.107095 8.70869 -0.107095 7.95597 0.321285L7.81313 0.40413L1.35694 4.10215L1.21411 4.185C0.465297 4.61375 0.00238619 5.40968 0 6.27255V13.9964C0.00257326 14.8594 0.465399 15.6555 1.21411 16.0847L7.81527 19.8648C8.29903 20.1426 8.91622 19.9788 9.19864 19.4977C9.33302 19.2669 9.36946 18.9919 9.29982 18.734C9.23019 18.4762 9.06029 18.2569 8.82798 18.1251L2.37179 14.4278C2.15726 14.3054 2.02457 14.0777 2.02399 13.8307V6.43824C2.02457 6.19128 2.15726 5.96351 2.37179 5.84118L8.82084 2.14102C9.0356 2.01887 9.29883 2.01887 9.51359 2.14102L15.9719 5.83976C16.1855 5.96254 16.3175 6.18977 16.3183 6.4361V13.8336C16.3177 14.0805 16.185 14.3083 15.9705 14.4306L13.7858 15.6819L12.6831 14.0193C13.7949 13.0345 14.4316 11.6207 14.4321 10.1355C14.4321 7.25526 12.0704 4.91203 9.1665 4.91203C6.26264 4.91203 3.90085 7.25526 3.90085 10.1355C3.90085 13.0158 6.26264 15.3591 9.1665 15.3591C9.77227 15.3596 10.3736 15.2557 10.9441 15.052L12.6188 17.5773C12.645 17.6158 12.6734 17.6528 12.7038 17.688L12.7217 17.7059C12.757 17.744 12.7955 17.7791 12.8367 17.8108C12.8467 17.8187 12.856 17.8273 12.8667 17.8351C12.912 17.8678 12.9597 17.8969 13.0095 17.9223L13.0438 17.9373C13.0883 17.9572 13.1341 17.9741 13.1809 17.988L13.2123 17.998C13.2655 18.0114 13.3197 18.0203 13.3744 18.0244H13.4194C13.4352 18.0244 13.4502 18.0244 13.4659 18.0244C13.4966 18.0244 13.5273 18.0208 13.5573 18.018C13.5716 18.018 13.5851 18.018 13.5994 18.018C13.6571 18.01 13.714 17.9971 13.7694 17.9794C13.7844 17.9751 13.7987 17.9687 13.8137 17.963C13.8578 17.9469 13.9007 17.9278 13.9422 17.9058C13.9515 17.9008 13.9622 17.898 13.9715 17.8923L17.1296 16.0875C17.8791 15.6577 18.342 14.8604 18.3437 13.9964V6.27183C18.3413 5.40897 17.8784 4.61303 17.1296 4.18429ZM5.92555 10.1355C5.91455 8.82229 6.69717 7.63222 7.90732 7.12202C9.11747 6.61182 10.5159 6.88237 11.4484 7.8071C12.381 8.73183 12.6633 10.1279 12.1633 11.3423C11.6632 12.5567 10.4798 13.3494 9.1665 13.3494C7.38503 13.3545 5.93539 11.917 5.92555 10.1355Z" fill="black"/>
<path d="M17.1296 4.18429L15.1185 3.03231L10.527 0.403416L10.3842 0.321285C9.63145 -0.107095 8.70869 -0.107095 7.95597 0.321285L7.81313 0.40413L1.35694 4.10215L1.21411 4.185C0.465297 4.61375 0.00238619 5.40968 0 6.27255V13.9964C0.00257326 14.8594 0.465399 15.6555 1.21411 16.0847L7.81527 19.8648C8.29903 20.1426 8.91622 19.9788 9.19864 19.4977C9.33302 19.2669 9.36946 18.9919 9.29982 18.734C9.23019 18.4762 9.06029 18.2569 8.82798 18.1251L2.37179 14.4278C2.15726 14.3054 2.02457 14.0777 2.02399 13.8307V6.43824C2.02457 6.19128 2.15726 5.96351 2.37179 5.84118L8.82084 2.14102C9.0356 2.01887 9.29883 2.01887 9.51359 2.14102L15.9719 5.83976C16.1855 5.96254 16.3175 6.18977 16.3183 6.4361V13.8336C16.3177 14.0805 16.185 14.3083 15.9705 14.4306L13.7858 15.6819L12.6831 14.0193C13.7949 13.0345 14.4316 11.6207 14.4321 10.1355C14.4321 7.25526 12.0704 4.91203 9.1665 4.91203C6.26264 4.91203 3.90085 7.25526 3.90085 10.1355C3.90085 13.0158 6.26264 15.3591 9.1665 15.3591C9.77227 15.3596 10.3736 15.2557 10.9441 15.052L12.6188 17.5773C12.645 17.6158 12.6734 17.6528 12.7038 17.688L12.7217 17.7059C12.757 17.744 12.7955 17.7791 12.8367 17.8108C12.8467 17.8187 12.856 17.8273 12.8667 17.8351C12.912 17.8678 12.9597 17.8969 13.0095 17.9223L13.0438 17.9373C13.0883 17.9572 13.1341 17.9741 13.1809 17.988L13.2123 17.998C13.2655 18.0114 13.3197 18.0203 13.3744 18.0244H13.4194C13.4352 18.0244 13.4502 18.0244 13.4659 18.0244C13.4966 18.0244 13.5273 18.0208 13.5573 18.018C13.5716 18.018 13.5851 18.018 13.5994 18.018C13.6571 18.01 13.714 17.9971 13.7694 17.9794C13.7844 17.9751 13.7987 17.9687 13.8137 17.963C13.8578 17.9469 13.9007 17.9278 13.9422 17.9058C13.9515 17.9008 13.9622 17.898 13.9715 17.8923L17.1296 16.0875C17.8791 15.6577 18.342 14.8604 18.3437 13.9964V6.27183C18.3413 5.40897 17.8784 4.61303 17.1296 4.18429ZM5.92555 10.1355C5.91455 8.82229 6.69717 7.63222 7.90732 7.12202C9.11747 6.61182 10.5159 6.88237 11.4484 7.8071C12.381 8.73183 12.6633 10.1279 12.1633 11.3423C11.6632 12.5567 10.4798 13.3494 9.1665 13.3494C7.38503 13.3545 5.93539 11.917 5.92555 10.1355Z" fill="black"/>
<path d="M17.1296 4.18429L15.1185 3.03231L12.3132 1.42681C11.6684 1.0585 10.8798 1.04664 10.2242 1.39539L8.82084 2.14102C9.0356 2.01887 9.29883 2.01887 9.51359 2.14102L15.9719 5.83976C16.1855 5.96254 16.3175 6.18977 16.3183 6.4361V13.8336C16.3177 14.0805 16.185 14.3083 15.9705 14.4306L13.7858 15.6819L14.1265 16.2268C14.5343 16.8769 15.383 17.0885 16.0483 16.706L17.1296 16.0875C17.8803 15.6589 18.3437 14.8608 18.3437 13.9964V6.27183C18.3427 5.40861 17.8794 4.61206 17.1296 4.18429Z" fill="black"/>
<path d="M16.3183 6.43822V10.027H18.3437L18.3437 6.27183C18.3427 5.40861 17.8794 4.61206 17.1296 4.18429L15.1185 3.03231L12.3132 1.42681C11.6684 1.0585 10.8798 1.04664 10.2242 1.39539L8.82084 2.14102C9.0356 2.01887 9.29883 2.01887 9.51359 2.14102L15.9719 5.83976C16.1861 5.96292 16.3182 6.19112 16.3183 6.43822Z" fill="black"/>
<path d="M16.3183 10.6048L16.3183 13.8336C16.3177 14.0805 16.185 14.3083 15.9705 14.4306L13.7858 15.6819L14.1265 16.2268C14.5343 16.8769 15.383 17.0885 16.0483 16.706L17.1296 16.0875C17.8803 15.6589 18.3437 14.8608 18.3437 13.9964L18.3437 10.6048H16.3183Z" fill="black"/>
<path d="M13.6301 15.4476L12.6824 14.0193C12.1748 14.4725 11.5843 14.8232 10.9434 15.052L11.9511 16.5725C12.52 16.2097 13.0797 15.8347 13.6301 15.4476Z" fill="black"/>
</g>
</svg>
