<svg width="21" height="22" viewBox="0 0 21 22" fill="none" xmlns="http://www.w3.org/2000/svg">
<g id="Group 1000000829">
<g id="Subtract">
<mask id="path-1-outside-1_10714_5307" maskUnits="userSpaceOnUse" x="0.34375" y="0" width="21" height="22" fill="black">
<rect fill="white" x="0.34375" width="21" height="22"/>
<path d="M11.3281 2.19267L17.9728 5.92683C18.2186 6.05623 18.4233 6.25149 18.5638 6.49065C18.7043 6.7298 18.7752 7.00333 18.7683 7.28046V14.7254C18.7675 15.0011 18.6935 15.2716 18.5537 15.5094C18.414 15.7472 18.2135 15.9437 17.9728 16.0791L11.3281 19.7899C11.0939 19.9268 10.8275 19.9993 10.556 19.9999C10.2842 20.0024 10.0169 19.9297 9.78395 19.7899L3.13929 16.0791C2.8966 15.946 2.69453 15.7499 2.55448 15.5116C2.41444 15.2733 2.34164 15.0017 2.3438 14.7254V7.28046C2.34459 7.00483 2.41864 6.73433 2.55838 6.49654C2.69812 6.25875 2.89857 6.06217 3.13929 5.92683L9.80735 2.19267C10.0408 2.06623 10.3021 2 10.5677 2C10.8333 2 11.0947 2.06623 11.3281 2.19267Z"/>
</mask>
<path d="M11.3281 2.19267L17.9728 5.92683C18.2186 6.05623 18.4233 6.25149 18.5638 6.49065C18.7043 6.7298 18.7752 7.00333 18.7683 7.28046V14.7254C18.7675 15.0011 18.6935 15.2716 18.5537 15.5094C18.414 15.7472 18.2135 15.9437 17.9728 16.0791L11.3281 19.7899C11.0939 19.9268 10.8275 19.9993 10.556 19.9999C10.2842 20.0024 10.0169 19.9297 9.78395 19.7899L3.13929 16.0791C2.8966 15.946 2.69453 15.7499 2.55448 15.5116C2.41444 15.2733 2.34164 15.0017 2.3438 14.7254V7.28046C2.34459 7.00483 2.41864 6.73433 2.55838 6.49654C2.69812 6.25875 2.89857 6.06217 3.13929 5.92683L9.80735 2.19267C10.0408 2.06623 10.3021 2 10.5677 2C10.8333 2 11.0947 2.06623 11.3281 2.19267Z" stroke="black" stroke-width="3.6" mask="url(#path-1-outside-1_10714_5307)"/>
</g>
<g id="Vector">
<path fill-rule="evenodd" clip-rule="evenodd" d="M4.94641 7.69115C5.10301 7.42285 5.44746 7.3323 5.71577 7.48889L6.18422 7.76231C6.45253 7.91891 6.54308 8.26336 6.38648 8.53167C6.22988 8.79997 5.88543 8.89053 5.61713 8.73393L5.14867 8.46051C4.88037 8.30391 4.78982 7.95946 4.94641 7.69115ZM7.10131 8.94889C7.25791 8.68058 7.60236 8.59003 7.87066 8.74663L8.80758 9.29347C9.07588 9.45007 9.16643 9.79452 9.00984 10.0628C8.85324 10.3311 8.50879 10.4217 8.24048 10.2651L7.30357 9.71824C7.03527 9.56164 6.94471 9.21719 7.10131 8.94889ZM9.72466 10.48C9.88126 10.2117 10.2257 10.1212 10.494 10.2778L10.5721 10.3234C10.8001 10.2793 11.041 10.3803 11.1647 10.5922C11.2315 10.7066 11.2533 10.8348 11.2356 10.9564C11.2533 11.078 11.2315 11.2062 11.1647 11.3206C11.041 11.5325 10.8001 11.6335 10.5721 11.5894L10.494 11.635C10.2257 11.7916 9.88126 11.701 9.72466 11.4327C9.63691 11.2824 9.62677 11.1081 9.68203 10.9564C9.62677 10.8047 9.63691 10.6304 9.72466 10.48ZM9.00984 11.85C9.16643 12.1183 9.07588 12.4627 8.80758 12.6193L7.87066 13.1662C7.60236 13.3228 7.25791 13.2322 7.10131 12.9639C6.94471 12.6956 7.03527 12.3511 7.30357 12.1945L8.24048 11.6477C8.50879 11.4911 8.85324 11.5817 9.00984 11.85ZM6.38648 13.3811C6.54308 13.6494 6.45253 13.9939 6.18422 14.1505L5.71577 14.4239C5.44746 14.5805 5.10301 14.4899 4.94641 14.2216C4.78982 13.9533 4.88037 13.6089 5.14867 13.4523L5.61713 13.1789C5.88543 13.0223 6.22988 13.1128 6.38648 13.3811Z" fill="black"/>
<path fill-rule="evenodd" clip-rule="evenodd" d="M16.1558 7.69115C16.3124 7.95946 16.2219 8.30391 15.9536 8.46051L15.4851 8.73393C15.2168 8.89053 14.8724 8.79997 14.7158 8.53167C14.5592 8.26336 14.6497 7.91891 14.918 7.76231L15.3865 7.48889C15.6548 7.3323 15.9992 7.42285 16.1558 7.69115ZM14.0009 8.94889C14.1575 9.21719 14.067 9.56164 13.7987 9.71824L12.8618 10.2651C12.5935 10.4217 12.249 10.3311 12.0924 10.0628C11.9358 9.79452 12.0264 9.45006 12.2947 9.29347L13.2316 8.74663C13.4999 8.59003 13.8443 8.68058 14.0009 8.94889ZM9.86659 10.9564C9.84891 11.078 9.87075 11.2062 9.9375 11.3206C10.0612 11.5325 10.3021 11.6335 10.5301 11.5894L10.6082 11.635C10.8765 11.7916 11.221 11.701 11.3776 11.4327C11.4653 11.2824 11.4755 11.1081 11.4202 10.9564C11.4755 10.8047 11.4653 10.6304 11.3776 10.48C11.221 10.2117 10.8765 10.1212 10.6082 10.2778L10.5301 10.3234C10.3021 10.2793 10.0612 10.3803 9.9375 10.5922C9.87075 10.7066 9.84891 10.8348 9.86659 10.9564ZM12.0924 11.85C12.249 11.5817 12.5935 11.4911 12.8618 11.6477L13.7987 12.1945C14.067 12.3511 14.1575 12.6956 14.0009 12.9639C13.8443 13.2322 13.4999 13.3228 13.2316 13.1662L12.2947 12.6193C12.0264 12.4627 11.9358 12.1183 12.0924 11.85ZM14.7158 13.3811C14.8724 13.1128 15.2168 13.0223 15.4851 13.1789L15.9536 13.4523C16.2219 13.6089 16.3124 13.9533 16.1558 14.2216C15.9992 14.4899 15.6548 14.5805 15.3865 14.4239L14.918 14.1505C14.6497 13.9939 14.5592 13.6494 14.7158 13.3811Z" fill="black"/>
<path fill-rule="evenodd" clip-rule="evenodd" d="M10.5507 4.59961C10.8613 4.59961 11.1132 4.85145 11.1132 5.16211L11.1132 16.8621C11.1132 17.1728 10.8613 17.4246 10.5507 17.4246C10.24 17.4246 9.98816 17.1728 9.98816 16.8621L9.98816 5.16211C9.98816 4.85145 10.24 4.59961 10.5507 4.59961Z" fill="black"/>
</g>
</g>
</svg>
